<svg width="24" height="22" viewBox="0 0 24 22" fill="none" xmlns="http://www.w3.org/2000/svg">
<path d="M4.79297 21.1738C5.96484 21.1738 8.88477 19.8945 10.5449 18.7129C10.7109 18.5859 10.8477 18.5371 10.9844 18.5371C11.1113 18.5566 11.2383 18.5566 11.3652 18.5566C18.4062 18.5566 23.0742 14.5527 23.0742 9.68945C23.0742 4.77734 18.1523 0.8125 12 0.8125C5.84766 0.8125 0.925781 4.77734 0.925781 9.68945C0.925781 12.8242 2.84961 15.5684 5.98438 17.2383C6.13086 17.3164 6.17969 17.4629 6.10156 17.6191C5.55469 18.5176 4.57812 19.5918 4.20703 20.0801C3.82617 20.5684 4.04102 21.1738 4.79297 21.1738Z" fill="#DAD7E0"/>
</svg>
