<svg width="22" height="20" viewBox="0 0 22 20" fill="none" xmlns="http://www.w3.org/2000/svg">
<path d="M7.5122 0C7.21493 0 6.97561 0.254854 6.97561 0.571429V2.28571H15.0244V0.571429C15.0244 0.254854 14.7851 0 14.4878 0H7.5122ZM2.41463 3.42857C1.07693 3.42857 0 4.57543 0 6V8.51789C2.45638 9.93515 5.78066 10.8926 9.49925 11.0983C9.73151 10.4556 10.3147 10 11 10C11.686 10 12.2774 10.4546 12.5091 11.0983C16.2244 10.8917 19.5455 9.93409 22 8.51789V6C22 4.57543 20.9231 3.42857 19.5854 3.42857H2.41463ZM0 9.80361V17.4286C0 18.8531 1.07693 20 2.41463 20H19.5854C20.9231 20 22 18.8531 22 17.4286V9.80361C19.4309 11.1658 16.1544 12.0455 12.5343 12.2411C12.3252 12.9294 11.7159 13.4286 11 13.4286C10.2841 13.4286 9.6833 12.9293 9.47409 12.2411C5.85069 12.0464 2.5711 11.1669 0 9.80361Z" fill="#DAD7E0"/>
</svg>
